<svg xmlns="http://www.w3.org/2000/svg" viewBox="0 0 1200 800" width="1200" height="800"><path fill="#FFF" d="M0 0h1200v800H0z"/><g transform="translate(551.0 227.0) rotate(0.0 87.5 30.5) scale(1.0 1.0)"><svg width="175" height="61" viewBox="0 0 175 61"><g><path d="M26.62 24.1q1.84 0 3.25.57t2.45 1.67l-1.66 2.22q-.86-.9-1.85-1.35-.99-.45-2.25-.45-.74 0-1.2.16-.46.16-.66.44t-.2.64q0 .42.39.71t1.27.49l2.22.5q1.98.46 2.9 1.34.92.88.92 2.34 0 1.4-.72 2.37-.72.96-1.98 1.46-1.26.49-2.88.49-1.32 0-2.52-.29t-2.16-.84q-.96-.53-1.62-1.23l1.66-2.3q.5.58 1.23 1.03.73.45 1.6.71.87.26 1.77.26.7 0 1.17-.14t.69-.42q.22-.28.22-.66 0-.42-.3-.71t-1.14-.49l-2.44-.54q-1.12-.26-1.99-.69-.87-.43-1.37-1.16-.5-.73-.5-1.83 0-1.24.68-2.21.68-.98 1.96-1.53 1.28-.56 3.06-.56Zm10.9 13.4h-3.4V23.26h3.4v6.06q.44-1 1.26-1.51.82-.52 1.9-.52 1.04 0 1.81.41.77.4 1.21 1.18.44.78.44 1.96v6.66h-3.4v-5.72q0-1.08-.39-1.49-.39-.41-1.03-.41-.48 0-.9.24-.42.24-.66.76-.24.51-.24 1.36v5.26Zm13.76-10.21q1.58 0 2.77.62 1.19.61 1.86 1.78.67 1.17.67 2.81 0 1.64-.67 2.81-.67 1.17-1.86 1.78-1.19.61-2.77.61-1.54 0-2.74-.61-1.2-.61-1.87-1.78Q46 34.14 46 32.5q0-1.64.67-2.81.67-1.17 1.87-1.78 1.2-.62 2.74-.62Zm0 2.42q-.58 0-1 .29-.42.28-.64.89-.22.63-.22 1.61 0 .98.22 1.59.22.61.64.9.42.29 1 .29.6 0 1.02-.29.42-.29.64-.9.22-.61.22-1.59 0-.98-.22-1.61-.22-.61-.64-.89-.42-.29-1.02-.29ZM61.9 41.7h-3.4V27.5h3.06l.18 3.62-.4-.42q.14-1 .62-1.76t1.24-1.2q.76-.45 1.74-.45 1.24 0 2.16.62.92.61 1.43 1.76.51 1.15.51 2.79 0 1.64-.52 2.82t-1.45 1.79q-.93.63-2.17.63-1.36 0-2.2-.81-.84-.81-1.12-2.05l.32-.48v7.34Zm1.84-6.5q.88 0 1.38-.65.5-.65.5-2.05t-.49-2.05q-.49-.65-1.37-.65-.56 0-.98.31-.42.31-.65.91-.23.6-.23 1.48 0 .84.21 1.45t.63.93q.42.32 1 .32Zm8.08-9.94 3.4-.94v9.62q0 .72.35 1.02.35.32.97.32.48 0 .83-.11t.63-.33l.36 2.1q-.5.36-1.26.56-.76.2-1.56.2-1.14 0-1.97-.32-.83-.33-1.28-1.02-.45-.7-.47-1.86v-9.24ZM70.1 27.5h8.1v2.42h-8.1V27.5Zm14.44-.21q1.58 0 2.77.62 1.19.61 1.86 1.78.67 1.17.67 2.81 0 1.64-.67 2.81-.67 1.17-1.86 1.78-1.19.61-2.77.61-1.54 0-2.74-.61-1.2-.61-1.87-1.78-.67-1.17-.67-2.81 0-1.64.67-2.81.67-1.17 1.87-1.78 1.2-.62 2.74-.62Zm0 2.42q-.58 0-1 .29-.42.28-.64.89-.22.63-.22 1.61 0 .98.22 1.59.22.61.64.9.42.29 1 .29.6 0 1.02-.29.42-.29.64-.9.22-.61.22-1.59 0-.98-.22-1.61-.22-.61-.64-.89-.42-.29-1.02-.29ZM95.16 41.7h-3.4V27.5h3.06l.18 3.62-.4-.42q.14-1 .62-1.76t1.24-1.2q.76-.45 1.74-.45 1.24 0 2.16.62.92.61 1.43 1.76.51 1.15.51 2.79 0 1.64-.52 2.82t-1.45 1.79q-.93.63-2.17.63-1.36 0-2.2-.81-.84-.81-1.12-2.05l.32-.48v7.34ZM97 35.2q.88 0 1.38-.65.5-.65.5-2.05t-.49-2.05q-.49-.65-1.37-.65-.56 0-.98.31-.42.31-.65.91-.23.6-.23 1.48 0 .84.21 1.45t.63.93q.42.32 1 .32Zm9-8.86q-1.04 0-1.51-.39t-.47-1.24q0-.85.47-1.25.47-.38 1.51-.38 1.02 0 1.5.38.48.4.48 1.25t-.48 1.24q-.48.39-1.5.39Zm-1.7 1.16h3.4v10h-3.4v-10Zm11.4 6.3v-2.64q0-.7-.39-1.11-.39-.41-1.05-.41t-1.13.32q-.47.34-.65 1.18l-2.88-.68q.28-1.44 1.48-2.3 1.2-.87 3.38-.87 1.46 0 2.49.44 1.03.43 1.58 1.28.55.85.55 2.09v3.66q0 .78.7.78.36 0 .58-.08l-.2 1.93q-.6.29-1.46.29-.78 0-1.38-.25-.6-.25-.94-.77-.34-.5-.34-1.28v-.12l.38-.14q0 .86-.51 1.43-.51.59-1.32.87t-1.69.28q-1.02 0-1.78-.32-.76-.33-1.17-.93-.41-.61-.41-1.51 0-1.08.65-1.8.65-.7 2.05-.98l3.78-.78-.02 1.8-1.92.4q-.6.12-.89.35-.29.23-.29.69 0 .44.32.66.32.22.76.22.34 0 .65-.1t.55-.31q.24-.21.38-.53.14-.32.14-.76Z"/></g></svg></g></svg>